<?xml version="1.0" encoding="utf-8"?>
<!-- Generator: Adobe Illustrator 16.0.3, SVG Export Plug-In . SVG Version: 6.00 Build 0)  -->
<svg version="1.2" baseProfile="tiny" xmlns="http://www.w3.org/2000/svg" xmlns:xlink="http://www.w3.org/1999/xlink" x="0px"
	 y="0px" width="50px" height="50px" viewBox="0 0 50 50" xml:space="preserve">
<g id="Ebene_1" display="none">
	<path display="inline" fill="#000000" d="M0.706,24.02L19.338,4.854c0,0,2.218-2.341,2.218,0.198c0,2.54,0,8.691,0,8.691
		s1.492,0,3.786,0c6.564,0,18.483,0,23.34,0c0,0,1.318-0.345,1.318,1.658c0,2.002,0,18.267,0,19.703c0,1.438-1.1,1.395-1.1,1.395
		c-4.731,0-17.063,0-23.39,0c-2.069,0-3.412,0-3.412,0s0,4.931,0,8.029c0,3.087-2.301,0.758-2.301,0.758S2.375,28.42,0.559,26.608
		C-0.779,25.27,0.706,24.02,0.706,24.02z"/>
</g>
<g id="Ebene_2">
	<path id="_x3C_Compound_Path_x3E__3_" fill="#000000" d="M31.289,14.29c-1.402-4.126-3.585-6.79-6.047-6.79
		c-2.494,0-4.703,2.737-6.101,6.952c-1.313-0.269-2.559-0.422-3.675-0.422c-2.574,0-4.522,0.729-5.389,2.231
		c-1.26,2.185,0.051,5.512,3.078,8.866c-1.08,1.25-12.934,15.775,6.041,10.584c1.398,4.125,3.584,6.789,6.045,6.789
		c2.492,0,4.701-2.734,6.099-6.951c1.313,0.271,2.559,0.425,3.675,0.425c2.573,0,4.52-0.728,5.389-2.235
		c1.257-2.183-0.053-5.51-3.076-8.864C44.068,18.135,43.011,12.112,31.289,14.29z M11.972,17.356
		c0.412-0.714,1.717-1.139,3.494-1.141c0.938,0,1.977,0.124,3.069,0.34c-0.317,1.321-0.559,2.748-0.72,4.25
		c-1.165,0.888-2.233,1.804-3.177,2.73C12.236,20.834,11.334,18.461,11.972,17.356z M17.613,26.368
		c-0.514-0.423-1.001-0.846-1.446-1.265c0.447-0.44,0.927-0.884,1.445-1.328c-0.013,0.407-0.027,0.811-0.027,1.224
		C17.584,25.462,17.599,25.916,17.613,26.368z M14.674,26.687c0.938,0.887,2.001,1.757,3.151,2.6
		c0.168,1.528,0.421,2.979,0.753,4.317C5.715,37.986,13.18,28.179,14.674,26.687z M30.232,19.075
		c-0.384-0.239-0.771-0.479-1.169-0.709c-0.432-0.249-0.864-0.474-1.296-0.703c0.689-0.267,1.368-0.508,2.032-0.715
		C29.964,17.617,30.109,18.327,30.232,19.075z M25.242,9.685c1.249,0,2.812,1.874,3.949,5.159c-1.306,0.403-2.66,0.916-4.042,1.552
		c-1.334-0.58-2.641-1.05-3.901-1.418C22.388,11.61,23.977,9.685,25.242,9.685z M20.648,17.083c0.628,0.185,1.267,0.396,1.917,0.635
		c-0.43,0.236-0.859,0.472-1.288,0.729c-0.355,0.218-0.692,0.445-1.035,0.669C20.362,18.402,20.495,17.724,20.648,17.083z
		 M20.25,30.926c0.383,0.238,0.768,0.479,1.167,0.709c0.432,0.248,0.864,0.475,1.295,0.703c-0.688,0.269-1.365,0.51-2.029,0.713
		C20.518,32.383,20.375,31.674,20.25,30.926z M25.242,40.313c-1.249,0-2.812-1.87-3.948-5.157c1.304-0.401,2.658-0.915,4.039-1.548
		c1.335,0.58,2.641,1.049,3.9,1.418C28.094,38.39,26.507,40.313,25.242,40.313z M29.833,32.918c-0.63-0.183-1.266-0.393-1.915-0.635
		c0.427-0.238,0.855-0.472,1.285-0.73c0.357-0.218,0.691-0.446,1.036-0.67C30.123,31.596,29.985,32.276,29.833,32.918z
		 M30.588,28.018c-0.8,0.574-1.64,1.131-2.517,1.663c-0.917,0.554-1.842,1.052-2.765,1.505c-0.936-0.437-1.871-0.912-2.795-1.446
		c-0.933-0.536-1.801-1.09-2.613-1.65c-0.079-0.983-0.126-2.01-0.126-3.09c0-1.048,0.045-2.047,0.123-3.007
		c0.786-0.565,1.614-1.127,2.516-1.67c0.914-0.556,1.84-1.053,2.763-1.507c0.936,0.438,1.874,0.912,2.796,1.444
		c0.936,0.541,1.802,1.094,2.613,1.654c0.079,0.983,0.128,2.01,0.128,3.085C30.711,26.052,30.664,27.055,30.588,28.018z
		 M35.797,23.305c-0.937-0.881-1.994-1.749-3.142-2.588c-0.165-1.531-0.418-2.98-0.752-4.317
		C32.754,16.22,45.146,13.956,35.797,23.305z M32.867,23.635c0.515,0.422,1.002,0.847,1.45,1.266
		c-0.455,0.447-0.938,0.887-1.446,1.322c0.012-0.406,0.027-0.811,0.027-1.224C32.898,24.538,32.883,24.087,32.867,23.635z
		 M38.507,32.646c-0.407,0.714-1.716,1.139-3.491,1.139c-0.941,0-1.978-0.123-3.069-0.34c0.32-1.321,0.56-2.752,0.722-4.257
		c1.164-0.888,2.224-1.804,3.166-2.731C38.242,29.161,39.146,31.541,38.507,32.646z"/>
</g>
</svg>
