<?xml version="1.0" encoding="utf-8"?>
<!-- Generator: Adobe Illustrator 16.0.4, SVG Export Plug-In . SVG Version: 6.00 Build 0)  -->
<!DOCTYPE svg PUBLIC "-//W3C//DTD SVG 1.1//EN" "http://www.w3.org/Graphics/SVG/1.1/DTD/svg11.dtd">
<svg version="1.1" id="pfade" xmlns="http://www.w3.org/2000/svg" xmlns:xlink="http://www.w3.org/1999/xlink" x="0px" y="0px"
	 width="80px" height="80px" viewBox="0 0 80 80" enable-background="new 0 0 80 80" xml:space="preserve">
<g>
	
		<polygon fill="none" stroke="#FFFFFF" stroke-width="2" stroke-linecap="round" stroke-linejoin="round" stroke-miterlimit="10" points="
		65.278,61.487 14.721,61.487 40.09,18.513 	"/>
	<g>
		<path fill="#FFFFFF" d="M40,54.538c-1.387,0-2.455-1.126-2.455-2.423c0-1.388,1.068-2.458,2.455-2.458
			c1.357,0,2.427,1.098,2.427,2.458C42.427,53.412,41.329,54.538,40,54.538z M41.416,45.964c-0.058,0.549-0.173,0.522-0.606,0.522
			h-1.646c-0.434,0-0.55,0.026-0.606-0.522l-0.637-11.27c-0.028-0.491-0.028-0.533-0.028-0.703c0-0.378,0.288-0.505,0.52-0.505h3.09
			c0.232,0,0.578,0.14,0.578,0.516c0,0.173,0,0.129-0.028,0.621L41.416,45.964z"/>
	</g>
</g>
</svg>
