<?xml version="1.0" encoding="utf-8"?>
<!-- Generator: Adobe Illustrator 23.0.2, SVG Export Plug-In . SVG Version: 6.00 Build 0)  -->
<svg version="1.1" id="Layer_1" xmlns="http://www.w3.org/2000/svg" xmlns:xlink="http://www.w3.org/1999/xlink" x="0px" y="0px"
	 viewBox="0 0 361 361" style="enable-background:new 0 0 361 361;" xml:space="preserve">
<style type="text/css">
	.st0{fill:none;stroke:#4794DA;stroke-width:10;stroke-miterlimit:10;}
	.st1{fill:#4794DA;}
</style>
<g id="vent_x5F_ventilation">
	<path class="st0" d="M197.2,202.2c-1-3.8-4.1-6.3-6.9-5.5l-60.5,16.2c-2.8,0.7-4.2,4.4-3.2,8.3l28.1,104.7c1,3.8,4.1,6.3,6.9,5.5
		l60.5-16.2c2.8-0.8,4.2-4.5,3.2-8.3L197.2,202.2z"/>
	<path class="st0" d="M200.1,132.3c-2.8,2.8-3.4,6.7-1.3,8.8l44.3,44.3c2.1,2.1,6,1.5,8.8-1.3l76.7-76.7c2.8-2.8,3.4-6.7,1.3-8.8
		l-44.3-44.3c-2.1-2.1-6-1.5-8.8,1.3L200.1,132.3z"/>
	<path class="st0" d="M138,165c3.8,1,7.5-0.4,8.3-3.2l16.2-60.5c0.7-2.8-1.7-5.9-5.5-6.9L52.2,66.3c-3.8-1-7.5,0.4-8.3,3.2L27.8,130
		c-0.8,2.8,1.7,5.9,5.5,6.9L138,165z"/>
	<g>
		<g>
			<path class="st1" d="M170.7,183.4c3-11.1,6-22.3,8.9-33.4c-4,1.1-8,2.1-12,3.2c8.1,8.1,16.3,16.3,24.4,24.4c1.1-4,2.1-8,3.2-12
				c-11.1,3-22.3,6-33.4,8.9c-8.9,2.4-5.1,16.2,3.8,13.8c11.1-3,22.3-6,33.4-8.9c5.2-1.4,6.9-8.2,3.2-12
				c-8.1-8.1-16.3-16.3-24.4-24.4c-3.8-3.8-10.6-2.1-12,3.2c-3,11.1-6,22.3-8.9,33.4C154.5,188.5,168.3,192.3,170.7,183.4z"/>
		</g>
	</g>
</g>
<g id="Ebene_1">
</g>
</svg>
